#!OML:ASF H:\Terrain\Patient Classification 1\Takeo\Monday\TakeoMonday.ASF
:FULLY-SPECIFIED
:DEGREES
657
root 18.5537 17.6728 -0.218044 4.07894 -70.4845 -8.25834
lowerback 7.67652 4.87767 0.710729
upperback 2.74973 6.49569 0.613949
thorax -1.43186 3.21916 -0.330233
lowerneck -9.63073 7.35349 -2.72031
upperneck -2.20747 9.93124 7.48269
head 0.395374 5.07382 3.15654
rclavicle -1.16538e-013 1.2921e-014
rhumerus 14.8323 45.4923 -53.3232
rradius 75.5535
rwrist -24.1541
rhand -36.109 24.5249
rfingers 7.12502
rthumb -9.21502 -5.25379
lclavicle -1.16538e-013 1.2921e-014
lhumerus -16.6153 -21.1217 87.3355
lradius 82.5715
lwrist 20.9444
lhand -29.6285 19.6167
lfingers 7.12502
lthumb -2.95871 49.5759
rfemur -1.33542 -4.78238 9.77277
rtibia 28.0879
rfoot -8.12708 -22.2108
rtoes -2.43481
lfemur -10.9842 12.0141 -14.4015
ltibia 32.6422
lfoot -16.5574 18.4758
ltoes 5.12012
658
root 18.5577 17.6726 -0.260005 4.09116 -71.5407 -8.05056
lowerback 7.57407 4.90335 0.401356
upperback 2.8384 6.50429 0.644495
thorax -1.32181 3.22223 -0.116857
lowerneck -10.7605 7.48991 0.714343
upperneck -0.65958 9.71869 3.12797
head 1.47283 4.90518 1.29147
rclavicle 1.10512e-013 -7.55382e-015
rhumerus 13.7653 44.5259 -52.7836
rradius 75.7085
rwrist -24.0886
rhand -36.0266 24.2421
rfingers 7.12502
rthumb -9.13547 -5.54006
lclavicle 1.10512e-013 -7.55382e-015
lhumerus -16.8447 -20.8883 87.4484
lradius 81.9493
lwrist 20.9256
lhand -30.4174 19.2987
lfingers 7.12502
lthumb -3.72055 49.246
rfemur -1.76733 -4.55679 9.68532
rtibia 27.9706
rfoot -8.692 -22.5243
rtoes -2.58051
lfemur -10.9981 12.5918 -14.4745
ltibia 32.635
lfoot -16.5794 18.8739
ltoes 4.11471
659
root 18.555 17.6687 -0.298463 2.76899 -72.4354 -6.52073
lowerback 7.47003 4.86408 -0.360186
upperback 2.96213 6.39549 0.676484
thorax -1.22381 3.16369 0.356409
lowerneck -11.3963 7.79894 1.76856
upperneck 0.189071 10.0163 1.53668
head 1.99947 5.02183 0.705008
rclavicle -9.5603e-014 -2.68359e-015
rhumerus 12.5791 43.4976 -52.2515
rradius 75.9682
rwrist -24.2664
rhand -35.6906 24.4967
rfingers 7.12502
rthumb -8.81124 -5.29932
lclavicle -9.5603e-014 -2.68359e-015
lhumerus -17.1315 -20.4465 87.626
lradius 81.4123
lwrist 20.9196
lhand -28.5943 19.0351
lfingers 7.12502
lthumb -1.9599 49.0059
rfemur -2.04063 -4.84215 9.07471
rtibia 27.849
rfoot -8.67458 -22.2832
rtoes -3.66704
lfemur -10.9484 13.0044 -14.9367
ltibia 32.6059
lfoot -16.8243 19.1275
ltoes 5.43077
660
root 18.5576 17.6652 -0.334941 2.68305 -73.3699 -6.25131
lowerback 7.33224 4.81787 -0.433683
upperback 3.06748 6.32749 0.729475
thorax -1.05243 3.1281 0.474561
lowerneck -11.211 8.0982 1.36554
upperneck 0.206284 10.4744 1.55667
head 1.94673 5.25037 0.789886
rclavicle 5.09821e-014 -1.2275e-014
rhumerus 11.1663 42.3251 -51.9809
rradius 76.0782
rwrist -24.1019
rhand -35.736 25.0268
rfingers 7.12502
rthumb -8.85509 -4.76739
lclavicle 5.09821e-014 -1.2275e-014
lhumerus -17.2907 -19.9533 87.7893
lradius 80.807
lwrist 20.8958
lhand -27.1351 18.4328
lfingers 7.12502
lthumb -0.550556 48.4118
rfemur -2.4978 -5.00071 8.96112
rtibia 27.8381
rfoot -7.9814 -21.5119
rtoes -6.65142
lfemur -11.0056 13.4847 -14.9543
ltibia 32.5517
lfoot -16.7659 19.4958
ltoes 6.51996
661
root 18.5623 17.6605 -0.373913 3.11004 -74.3015 -6.54322
lowerback 7.28262 4.76575 -0.180146
upperback 3.14439 6.27136 0.6773
thorax -0.912161 3.10091 0.296658
lowerneck -10.9396 8.27983 1.48491
upperneck 0.0965769 10.7228 1.20622
head 1.88736 5.3636 0.658034
rclavicle 9.69075e-015 -1.06847e-014
rhumerus 10.0443 41.4149 -51.3503
rradius 76.412
rwrist -24.0213
rhand -36.1879 25.0194
rfingers 7.12502
rthumb -9.29111 -4.75587
lclavicle 9.69075e-015 -1.06847e-014
lhumerus -17.2616 -19.7209 87.6382
lradius 80.0601
lwrist 20.9004
lhand -27.1934 18.3729
lfingers 7.12502
lthumb -0.6069 48.3518
rfemur -2.96595 -4.93493 9.08168
rtibia 27.9101
rfoot -7.3913 -20.3924
rtoes -10.8589
lfemur -11.0631 13.8229 -14.772
ltibia 32.4895
lfoot -16.6504 19.996
ltoes 6.26677
662
root 18.5613 17.6572 -0.419219 2.48895 -75.2635 -5.78485
lowerback 7.49623 4.69599 -0.382452
upperback 3.04941 6.1625 0.540009
thorax -1.13297 3.04565 0.25237
lowerneck -10.8239 8.5035 2.13418
upperneck 0.344319 10.9676 0.519094
head 2.02914 5.4691 0.360838
rclavicle -6.23935e-014 -2.33572e-015
rhumerus 9.05964 40.8885 -50.7768
rradius 76.7994
rwrist -24.4569
rhand -36.8853 24.5917
rfingers 7.12502
rthumb -9.96394 -5.15247
lclavicle -6.23935e-014 -2.33572e-015
lhumerus -17.5965 -19.4831 87.3905
lradius 79.5097
lwrist 20.9087
lhand -27.5644 18.9529
lfingers 7.12502
lthumb -0.965156 48.9305
rfemur -3.30722 -4.70798 8.93
rtibia 27.9352
rfoot -7.8307 -19.649
rtoes -12.5364
lfemur -10.9313 14.4448 -14.9143
ltibia 32.5179
lfoot -16.7598 20.3269
ltoes 4.63169
663
root 18.5591 17.6532 -0.466773 1.29853 -76.1243 -4.36266
lowerback 7.60714 4.67122 -0.743148
upperback 2.99033 6.10176 0.442958
thorax -1.28121 3.01376 0.343072
lowerneck -10.8378 8.73703 2.30373
upperneck 0.584516 11.2729 0.148971
head 2.14794 5.61223 0.246066
rclavicle 9.15217e-014 -1.02871e-014
rhumerus 7.59636 39.7397 -50.6199
rradius 77.0502
rwrist -24.3924
rhand -37.0477 24.2383
rfingers 7.12502
rthumb -10.1207 -5.49832
lclavicle 9.15217e-014 -1.02871e-014
lhumerus -17.9491 -18.9926 87.4945
lradius 79.0481
lwrist 20.7129
lhand -27.5703 19.0021
lfingers 7.12502
lthumb -0.97094 48.9796
rfemur -3.64496 -4.44899 8.66822
rtibia 27.8976
rfoot -8.61955 -19.1796
rtoes -12.8449
lfemur -10.9348 15.0952 -15.2237
ltibia 32.6321
lfoot -16.8853 20.5407
ltoes 3.19922
664
root 18.5559 17.6465 -0.511179 1.26665 -76.9037 -4.07901
lowerback 7.46422 4.62096 -0.619525
upperback 3.03769 6.04205 0.351954
thorax -1.13032 2.98451 0.203108
lowerneck -10.9246 8.97238 2.35396
upperneck 0.799914 11.5857 -0.0226436
head 2.25309 5.76374 0.214829
rclavicle 1.0666e-014 4.96962e-016
rhumerus 6.14383 38.72 -49.9182
rradius 77.8833
rwrist -24.5288
rhand -37.1136 24.1153
rfingers 7.12502
rthumb -10.1843 -5.61819
lclavicle 1.0666e-014 4.96962e-016
lhumerus -18.0658 -18.6281 87.3737
lradius 78.5468
lwrist 20.6926
lhand -27.2532 18.4219
lfingers 7.12502
lthumb -0.664661 48.4007
rfemur -4.05061 -4.31367 8.71764
rtibia 27.8265
rfoot -9.09664 -18.623
rtoes -12.3586
lfemur -11.1189 15.5218 -15.1762
ltibia 32.7155
lfoot -16.9829 20.742
ltoes 3.30358
665
root 18.5538 17.6375 -0.554031 2.25435 -77.7174 -4.86704
lowerback 7.42231 4.4363 -0.30839
upperback 2.99892 5.81874 0.344725
thorax -1.11352 2.87511 0.0459177
lowerneck -10.6963 9.34392 2.3406
upperneck 0.911139 12.0906 -0.00269237
head 2.25084 6.0175 0.243234
rclavicle 1.90895e-014 -6.95746e-015
rhumerus 5.23776 38.3585 -48.885
rradius 78.7262
rwrist -24.9938
rhand -37.6746 23.7646
rfingers 7.12502
rthumb -10.7254 -5.94166
lclavicle 1.90895e-014 -6.95746e-015
lhumerus -18.4698 -18.1822 87.022
lradius 78.2324
lwrist 20.6655
lhand -27.0848 18.2712
lfingers 7.12502
lthumb -0.50201 48.2503
rfemur -4.42161 -4.34776 8.97828
rtibia 27.6104
rfoot -9.24773 -18.0011
rtoes -11.7746
lfemur -11.2642 15.8509 -14.8797
ltibia 32.7851
lfoot -17.0629 20.9405
ltoes 4.45451
666
root 18.5499 17.6389 -0.601261 2.70139 -78.451 -5.13083
lowerback 7.44137 4.23343 -0.191215
upperback 2.96623 5.55754 0.365809
thorax -1.14754 2.74519 0.021791
lowerneck -10.4393 9.70658 2.3743
upperneck 0.954518 12.5842 -0.113433
head 2.23308 6.26149 0.219221
rclavicle -5.91493e-014 4.05024e-015
rhumerus 4.36022 37.386 -48.5274
rradius 78.6318
rwrist -24.6853
rhand -37.774 23.527
rfingers 7.12502
rthumb -10.8213 -6.17424
lclavicle -5.91493e-014 4.05024e-015
lhumerus -18.8566 -17.6874 86.7971
lradius 77.9735
lwrist 20.4451
lhand -27.233 18.853
lfingers 7.12502
lthumb -0.645169 48.8317
rfemur -4.6568 -4.5379 9.14329
rtibia 27.217
rfoot -9.15804 -17.5053
rtoes -12.6577
lfemur -11.4774 15.7754 -14.6711
ltibia 32.882
lfoot -17.1898 21.3638
ltoes 5.99204
